Coordinates																	
version=1																	
nRows=31																	
nColumns=18																	
inDegrees=yes																	
endheader																	
time	ground_thorax_rot_x	ground_thorax_rot_y	ground_thorax_rot_z	ground_thorax_tx	ground_thorax_ty	ground_thorax_tz	clav_prot	clav_elev	scapula_abduction	scapula_elevation	scapula_upward_rot	scapula_winging	plane_elv	shoulder_elv	axial_rot	elbow_flexion	pro_sup
0	1.43881624	-4.14912548	-8.84916291	-0.00423131	0.00403036	-0.00078352	-27.18510299	-4.21566356	-19.86697732	-4.50350727	13.92910968	4.99098718	-34.19019599	16.89213393	29.59972185	0	34.32
0.01	1.63546197	-4.2992937	-8.68752786	-0.00423131	0.00403036	-0.00078352	-27.04608594	-3.86380701	-19.59440233	-4.28333748	14.15354248	4.82866729	-34.21775054	16.89142261	28.94825055	0	34.32
0.02	1.88422633	-4.31303472	-8.71227034	-0.00423131	0.00403036	-0.00078352	-27.07741277	-3.68891562	-19.60266104	-4.19236249	14.30985412	4.72769208	-33.56254664	17.08791794	27.69341806	0	34.32
0.03	1.797578	-4.19674572	-8.72364009	-0.00423131	0.00403036	-0.00078352	-27.2225482	-3.76436475	-19.93440788	-4.21288718	14.12847812	4.78321046	-33.06750001	17.26247414	26.17446986	0	34.32
0.04	1.68136804	-4.3136718	-8.92190082	-0.00423131	0.00403036	-0.00078352	-27.06465918	-4.04787404	-19.65230191	-4.39169797	14.02402485	4.92129342	-33.37458149	17.30636462	26.39880075	0	34.32
0.05	1.64604303	-4.33958908	-8.89964767	-0.00423131	0.00403036	-0.00078352	-27.06991241	-4.04285292	-19.66243904	-4.38831914	14.02443249	4.91930309	-33.40004037	17.33799765	26.42044324	0	34.32
0.06	1.65351619	-4.3033774	-8.77690544	-0.00423131	0.00403036	-0.00078352	-27.12320399	-3.88992284	-19.60949585	-4.35593467	14.33707019	4.78404045	-35.012078	16.68658222	32.27636347	0	34.32
0.07	1.55217773	-4.33827949	-8.78429129	-0.00423131	0.00403036	-0.00078352	-27.06482412	-4.00122667	-19.54914984	-4.40691485	14.22084394	4.85647525	-35.2191569	16.7874267	32.38300875	0	34.32
0.08	1.47350817	-4.22704661	-8.90072357	-0.00423131	0.00403036	-0.00078352	-27.12911698	-4.23694062	-19.80074967	-4.50089623	13.87092133	5.01823777	-34.03395863	17.40040482	26.886554	0	34.32
0.09	1.53223745	-4.37334002	-8.84150002	-0.00423131	0.00403036	-0.00078352	-26.98951856	-4.17815373	-19.53650523	-4.46597827	13.94595929	4.99316486	-34.14735337	17.46049968	27.11508861	0	34.32
0.1	1.54176298	-4.53867765	-8.77732204	-0.00423131	0.00403036	-0.00078352	-26.89105392	-4.05798826	-19.21718597	-4.4483766	14.25912712	4.88285398	-35.32453338	16.81530056	32.45848928	0	34.32
0.11	1.60165417	-4.51715795	-8.78994839	-0.00423131	0.00403036	-0.00078352	-26.93109401	-4.00927893	-19.29084183	-4.41708374	14.27145592	4.85951034	-35.180225	16.8953442	31.56729961	0	34.32
0.12	1.71222416	-4.53945007	-8.65904891	-0.00423131	0.00403036	-0.00078352	-26.85343824	-3.8517331	-19.211018	-4.28752313	14.25584238	4.817151	-34.59891621	17.40425391	27.12053681	0	34.32
0.13	1.72885965	-4.51876695	-8.73532934	-0.00423131	0.00403036	-0.00078352	-26.85765565	-3.87175012	-19.22584613	-4.297462	14.23393292	4.82928732	-34.59099163	17.36509389	27.15383787	0	34.32
0.14	1.46161679	-4.26926523	-8.8843679	-0.00423131	0.00403036	-0.00078352	-27.09271204	-4.2173949	-19.65431807	-4.5232856	14.02446163	4.97686178	-34.82194447	17.31579912	27.66228918	0	34.32
0.15	1.50755602	-4.27032963	-8.78114556	-0.00423131	0.00403036	-0.00078352	-27.09785911	-4.07717681	-19.6389544	-4.44340475	14.1287886	4.9021592	-35.29877874	17.22174371	28.68086406	0	34.32
0.16	1.52053515	-4.14478031	-8.95194781	-0.00423131	0.00403036	-0.00078352	-27.19278368	-4.25113517	-20.02242455	-4.46397672	13.66983895	5.06650122	-33.16875981	18.02090737	20.85667241	0	34.32
0.17	1.54734455	-4.38437217	-8.86873606	-0.00423131	0.00403036	-0.00078352	-26.9613512	-4.18095042	-19.61455392	-4.41038059	13.73060771	5.0505768	-33.49648377	18.05772455	21.87911882	0	34.32
0.18	1.54142946	-4.341954	-8.81128075	-0.00423131	0.00403036	-0.00078352	-27.11046422	-4.03900725	-19.64092008	-4.42806825	14.17901687	4.87532503	-35.33739502	16.77343301	33.08111762	0	34.32
0.19	1.48412688	-4.33519574	-8.85270112	-0.00423131	0.00403036	-0.00078352	-27.11319402	-4.16471886	-19.68308514	-4.49313102	14.05831453	4.94831987	-35.11264064	16.9994148	30.95472111	0	34.32
0.2	1.56528545	-4.3099209	-8.83675346	-0.00423131	0.00403036	-0.00078352	-27.1004373	-4.12695236	-19.72497537	-4.44002735	13.96781685	4.95937596	-34.46631672	17.32963241	28.47219515	0	34.32
0.21	1.82335633	-4.47355038	-8.8403038	-0.00423131	0.00403036	-0.00078352	-27.00506	-3.82991052	-19.4801329	-4.27831902	14.24499066	4.79828752	-34.09518677	17.26774244	27.5311542	0	34.32
0.22	1.52706876	-4.44724655	-8.81942578	-0.00423131	0.00403036	-0.00078352	-26.96635196	-4.10911766	-19.54008676	-4.40091722	13.90438201	4.98167317	-34.37462406	17.50931433	26.83663513	0	34.32
0.23	1.60973453	-4.44664024	-8.87228802	-0.00423131	0.00403036	-0.00078352	-26.98857482	-4.11414521	-19.52218411	-4.43012078	13.99665475	4.95860264	-34.4695197	17.48918616	27.10907692	0	34.32
0.24	1.62763193	-4.20269254	-8.84945968	-0.00423131	0.00403036	-0.00078352	-27.20275143	-4.11145381	-19.9663932	-4.40660457	13.85786742	4.97075036	-33.98140358	17.65703732	25.6600775	0	34.32
0.25	1.5520365	-4.30402849	-8.78324497	-0.00423131	0.00403036	-0.00078352	-27.07018183	-4.0980167	-19.66258724	-4.42412015	13.99981686	4.94426354	-35.02876789	17.28092756	29.11198843	0	34.32
0.26	1.7716513	-4.4023843	-8.78046391	-0.00423131	0.00403036	-0.00078352	-27.02095957	-3.8972076	-19.60126107	-4.28155162	14.05452187	4.8672504	-34.06226132	17.42298387	28.02611847	0	34.32
0.27	1.7610741	-4.52729373	-8.84547752	-0.00423131	0.00403036	-0.00078352	-26.92197234	-3.88574754	-19.29666052	-4.32751528	14.29190118	4.8130416	-34.88931444	17.20416353	27.86989304	0	34.32
0.28	1.7342667	-4.52894268	-8.79443347	-0.00423131	0.00403036	-0.00078352	-26.93168754	-3.90540527	-19.30564933	-4.34401519	14.29547257	4.8181892	-34.87916372	17.2394159	27.89505264	0	34.32
0.29	1.49573588	-4.40218868	-8.80624808	-0.00423131	0.00403036	-0.00078352	-26.99050728	-4.23129177	-19.49291385	-4.52052754	13.99925741	4.99822463	-35.25778058	17.38043754	28.33344941	0	34.32
0.3	1.47165393	-4.41769676	-8.83163156	-0.00423131	0.00403036	-0.00078352	-26.99274089	-4.21744003	-19.49712284	-4.51133122	14.00438717	4.99187451	-35.24935101	17.38585675	28.3438881	0	34.32
